<svg xmlns="http://www.w3.org/2000/svg" xmlns:xlink="http://www.w3.org/1999/xlink" viewBox="0 0 24 30" version="1.1" x="0px" y="0px"><title>eye</title><desc>Created with Sketch.</desc><g stroke="none" stroke-width="1" fill="none" fill-rule="evenodd"><path d="M12,19 C7.94991183,19 4.28324517,16.6666667 1,12 C4.28324517,7.33333333 7.94991183,5 12,5 C16.0500882,5 19.7167548,7.33333333 23,12 C19.7167548,16.6666667 16.0500882,19 12,19 Z M12,7 C8.99783957,7 6.17677591,8.61036443 3.49341639,12 C6.17677591,15.3896356 8.99783957,17 12,17 C15.0021604,17 17.8232241,15.3896356 20.5065836,12 C17.8232241,8.61036443 15.0021604,7 12,7 Z M12,16 C9.790861,16 8,14.209139 8,12 C8,9.790861 9.790861,8 12,8 C14.209139,8 16,9.790861 16,12 C16,14.209139 14.209139,16 12,16 Z M12,14 C13.1045695,14 14,13.1045695 14,12 C14,10.8954305 13.1045695,10 12,10 C10.8954305,10 10,10.8954305 10,12 C10,13.1045695 10.8954305,14 12,14 Z" fill="#000000" fill-rule="nonzero"/></g><text x="0" y="39" fill="#000000" font-size="5px" font-weight="bold" font-family="'Helvetica Neue', Helvetica, Arial-Unicode, Arial, Sans-serif">Created by Inktrap</text><text x="0" y="44" fill="#000000" font-size="5px" font-weight="bold" font-family="'Helvetica Neue', Helvetica, Arial-Unicode, Arial, Sans-serif">from the Noun Project</text></svg>